<?xml version="1.0" encoding="UTF-8" standalone="no"?>
<!-- Uploaded to: SVG Repo, www.svgrepo.com, Generator: SVG Repo Mixer Tools -->

<svg
   width="512"
   height="511.99997"
   viewBox="0 0 15.36 15.359999"
   fill="none"
   version="1.1"
   id="svg1"
   xmlns="http://www.w3.org/2000/svg"
   xmlns:svg="http://www.w3.org/2000/svg">
  <defs
     id="defs1" />
  <g
     id="Interface / Checkbox_Check"
     transform="translate(-0.91598624,-1.3305091)">
    <rect
       style="fill:#000000;stroke:#ffffff;stroke-width:0.0226156;stroke-opacity:1"
       id="rect1"
       width="15.337384"
       height="15.337384"
       x="0.92729408"
       y="-16.679201"
       ry="1.9601588"
       transform="scale(1,-1)" />
    <path
       id="Vector"
       d="M 5.7777871,9.0105096 7.8914364,11.131268 11.414185,6.8897516 M 2.9595879,12.403864 V 5.617438 c 0,-0.7918274 0,-1.1880345 0.1535848,-1.4904687 C 3.2482631,3.8609343 3.4636721,3.6448007 3.7288153,3.509256 4.0302358,3.3551546 4.4251148,3.3551546 5.2142882,3.3551546 h 6.7636778 c 0.789167,0 1.183221,0 1.484627,0.1541014 0.265123,0.1355447 0.481278,0.3516783 0.616341,0.6177133 0.153451,0.3021373 0.153451,0.6978637 0.153451,1.488143 v 6.7911547 c 0,0.790265 0,1.185434 -0.153451,1.487571 -0.135063,0.266013 -0.351218,0.482543 -0.616341,0.61806 -0.301124,0.153966 -0.694967,0.153966 -1.482584,0.153966 H 5.2119701 c -0.7876303,0 -1.1820302,0 -1.4831548,-0.153966 C 3.4636721,14.376381 3.2482631,14.159851 3.1131727,13.893838 2.9595879,13.591418 2.9595879,13.195684 2.9595879,12.403864 Z"
       stroke="#000000"
       stroke-width="1.41146"
       stroke-linecap="round"
       stroke-linejoin="round"
       style="stroke:#ffffff;stroke-width:1.2;stroke-dasharray:none;stroke-opacity:1" />
  </g>
</svg>
